<svg xmlns="http://www.w3.org/2000/svg" xmlns:xlink="http://www.w3.org/1999/xlink" width="100" height="100" viewBox="0 0 100 100">
    <defs>
        <circle id="a" cx="50" cy="50" r="50"/>
        <rect id="b" width="18" height="8.556" rx="1"/>
        <rect id="c" width="12.857" height="8.556" x="2.571" y="2.444" rx="1"/>
        <rect id="e" width="36" height="56" x="10" y="-4" rx="3"/>
        <filter id="d" width="119.4%" height="112.5%" x="-9.7%" y="-4.5%" filterUnits="objectBoundingBox">
            <feOffset dy="1" in="SourceAlpha" result="shadowOffsetOuter1"/>
            <feGaussianBlur in="shadowOffsetOuter1" result="shadowBlurOuter1" stdDeviation="1"/>
            <feComposite in="shadowBlurOuter1" in2="SourceAlpha" operator="out" result="shadowBlurOuter1"/>
            <feColorMatrix in="shadowBlurOuter1" values="0 0 0 0 0 0 0 0 0 0 0 0 0 0 0 0 0 0 0.15 0"/>
        </filter>
        <path id="f" d="M-8 21.5h36v5H-8z"/>
        <path id="g" d="M28 21.5h36v5H28z"/>
        <rect id="i" width="7.5" height="9.333" x="1.25" y="-.667" rx="1"/>
        <filter id="h" width="106.7%" height="110.7%" x="-3.3%" y="-2.7%" filterUnits="objectBoundingBox">
            <feOffset dy=".5" in="SourceAlpha" result="shadowOffsetOuter1"/>
            <feComposite in="shadowOffsetOuter1" in2="SourceAlpha" operator="out" result="shadowOffsetOuter1"/>
            <feColorMatrix in="shadowOffsetOuter1" values="0 0 0 0 0 0 0 0 0 0 0 0 0 0 0 0 0 0 0.15 0"/>
        </filter>
        <rect id="k" width="7.5" height="9.333" x="1.25" y="-.667" rx="1"/>
        <filter id="j" width="106.7%" height="110.7%" x="-3.3%" y="-2.7%" filterUnits="objectBoundingBox">
            <feOffset dy=".5" in="SourceAlpha" result="shadowOffsetOuter1"/>
            <feComposite in="shadowOffsetOuter1" in2="SourceAlpha" operator="out" result="shadowOffsetOuter1"/>
            <feColorMatrix in="shadowOffsetOuter1" values="0 0 0 0 0 0 0 0 0 0 0 0 0 0 0 0 0 0 0.15 0"/>
        </filter>
    </defs>
    <g fill="none" fill-rule="evenodd" opacity=".779">
        <g>
            <use fill="#F2F4F7" xlink:href="#a"/>
            <circle cx="50" cy="50" r="49.5" stroke="#DADFE9"/>
        </g>
        <g transform="translate(41 28)">
            <use fill="#FFF" xlink:href="#b"/>
            <rect width="17" height="7.556" x=".5" y=".5" stroke="#039BE5" rx="1"/>
        </g>
        <g transform="translate(41 28)">
            <use fill="#FFF" xlink:href="#c"/>
            <rect width="11.857" height="7.556" x="3.071" y="2.944" stroke="#039BE5" rx="1"/>
        </g>
        <g transform="rotate(90 25 49)">
            <use fill="#000" filter="url(#d)" xlink:href="#e"/>
            <use fill="#FFF" xlink:href="#e"/>
            <rect width="35" height="55" x="10.5" y="-3.5" stroke="#039BE5" rx="3"/>
        </g>
        <g transform="rotate(90 7 49)">
            <use fill="#FFF" xlink:href="#f"/>
            <path stroke="#039BE5" d="M-7.5 22h35v4h-35z"/>
        </g>
        <g transform="rotate(90 43 49)">
            <use fill="#FFF" xlink:href="#g"/>
            <path stroke="#039BE5" d="M28.5 22h35v4h-35z"/>
        </g>
        <g transform="translate(27 50)">
            <g transform="rotate(90 5 4)">
                <use fill="#000" filter="url(#h)" xlink:href="#i"/>
                <use fill="#FFF" xlink:href="#i"/>
                <rect width="6.5" height="8.333" x="1.75" y="-.167" stroke="#039BE5" rx="1"/>
            </g>
            <rect width="1.25" height="4" x="4.375" fill="#039BE5" rx=".625"/>
        </g>
        <g transform="translate(63 50)">
            <g transform="rotate(90 5 4)">
                <use fill="#000" filter="url(#j)" xlink:href="#k"/>
                <use fill="#FFF" xlink:href="#k"/>
                <rect width="6.5" height="8.333" x="1.75" y="-.167" stroke="#039BE5" rx="1"/>
            </g>
            <rect width="1.25" height="4" x="4.375" fill="#039BE5" rx=".625"/>
        </g>
        <g transform="translate(42 34)">
            <path stroke="#039BE5" d="M2.124 0C1.029 6.304-.052 5.465 3.847 8.792"/>
            <rect width="6.429" height="11.25" x=".774" y="7.88" fill="#016CB7" rx=".5" transform="rotate(-8 3.988 13.505)"/>
        </g>
    </g>
</svg>
