<svg xmlns="http://www.w3.org/2000/svg" xmlns:xlink="http://www.w3.org/1999/xlink" width="100" height="100" viewBox="0 0 100 100">
    <defs>
        <circle id="a" cx="50" cy="50" r="50"/>
        <ellipse id="b" cx="22.5" cy="26.5" rx="22.5" ry="26.5"/>
        <filter id="c" width="104.4%" height="103.8%" x="-2.2%" y="-1.9%" filterUnits="objectBoundingBox">
            <feOffset dy="2" in="SourceAlpha" result="shadowOffsetInner1"/>
            <feComposite in="shadowOffsetInner1" in2="SourceAlpha" k2="-1" k3="1" operator="arithmetic" result="shadowInnerInner1"/>
            <feColorMatrix in="shadowInnerInner1" values="0 0 0 0 0 0 0 0 0 0 0 0 0 0 0 0 0 0 0.109205163 0"/>
        </filter>
    </defs>
    <g fill="none" fill-rule="evenodd" opacity=".779">
        <g>
            <use fill="#F2F4F7" xlink:href="#a"/>
            <circle cx="50" cy="50" r="49.5" stroke="#DADFE9"/>
        </g>
        <g transform="translate(16 24)">
            <ellipse cx="54.5" cy="18.5" fill="#FFF" stroke="#039BE5" rx="8.5" ry="15.5" transform="rotate(-25 54.5 18.5)"/>
            <ellipse cx="14.5" cy="18.5" fill="#FFF" stroke="#039BE5" rx="8.5" ry="15.5" transform="scale(-1 1) rotate(-25 0 83.905)"/>
            <g transform="translate(13)">
                <use fill="#FFF" xlink:href="#b"/>
                <use fill="#000" filter="url(#c)" xlink:href="#b"/>
                <ellipse cx="22.5" cy="26.5" stroke="#039BE5" rx="22" ry="26"/>
            </g>
            <ellipse cx="35.5" cy="42" fill="#FFF" stroke="#016CB7" rx="4.5" ry="5"/>
            <ellipse cx="39.5" cy="36" fill="#FFF" stroke="#016CB7" rx="4.5" ry="5"/>
            <ellipse cx="30.5" cy="36" fill="#FFF" stroke="#016CB7" rx="4.5" ry="5"/>
            <path fill="#016CB7" d="M49.322 28.184c6.806 0 9.022 10.161 8.636-2.679C57.7 16.945 54.338 10.111 47.87 5 40.624 7.004 37 10.4 37 15.186c0 7.178 5.517 12.998 12.322 12.998z"/>
            <rect width="9" height="9" x="31" y="26" fill="#016CB7" rx="4.5"/>
            <ellipse cx="25" cy="19" fill="#016CB7" rx="3" ry="5"/>
            <ellipse cx="42.5" cy="18.5" stroke="#FFF" rx="2.5" ry="4.5"/>
        </g>
    </g>
</svg>
