<?xml version="1.0" encoding="UTF-8" standalone="no"?>
<svg width="150px" height="40px" viewBox="0 0 150 40" version="1.1" xmlns="http://www.w3.org/2000/svg" xmlns:xlink="http://www.w3.org/1999/xlink" xmlns:sketch="http://www.bohemiancoding.com/sketch/ns">
    <!-- Generator: sketchtool 3.4.4 (395) - http://www.bohemiancoding.com/sketch -->
    <title>sure-logo-blue</title>
    <desc>Created with sketchtool.</desc>
    <defs></defs>
    <g id="Main-Site" stroke="none" stroke-width="1" fill="none" fill-rule="evenodd" sketch:type="MSPage">
        <g id="1-1-Landing-Desktop" sketch:type="MSArtboardGroup" transform="translate(-130.000000, -4269.000000)" fill="#039BE5">
            <g id="Normal-Footer" sketch:type="MSLayerGroup" transform="translate(130.000000, 4269.000000)">
                <g id="sure-logo-blue" sketch:type="MSShapeGroup">
                    <path d="M149.72554,34.2020051 C149.72554,36.9051487 147.534206,39.0958029 144.831742,39.0958029 C142.128598,39.0958029 139.937944,36.9051487 139.937944,34.2020051 C139.937944,31.4988615 142.128598,29.3082073 144.831742,29.3082073 C147.534206,29.3082073 149.72554,31.4988615 149.72554,34.2020051" id="Fill-10"></path>
                    <path d="M107.693662,39.0960068 L107.693662,0.379949023 L134.012778,0.379949023 L134.012778,8.86253186 L117.210059,8.86253186 L117.210059,15.3332201 L131.5652,15.3332201 L131.5652,23.8164826 L117.210059,23.8164826 L117.210059,30.613424 L134.012778,30.613424 L134.012778,39.0960068 L107.693662,39.0960068 Z" id="Fill-8"></path>
                    <path d="M87.1409346,8.91697536 L81.757757,8.91697536 L81.757757,16.7470518 L87.1409346,16.7470518 C89.7509601,16.7470518 91.2734749,14.8439082 91.2734749,12.8320136 C91.2734749,10.8201189 89.7509601,8.91697536 87.1409346,8.91697536 L87.1409346,8.91697536 Z M91.8172302,39.0960748 L84.9659133,24.6858794 L81.757757,24.6858794 L81.757757,39.0960748 L72.2413594,39.0960748 L72.2413594,0.379337298 L87.5759388,0.379337298 C96.1672727,0.379337298 100.789193,6.47007647 100.789193,12.8320136 C100.789193,18.1064401 97.526661,21.4233475 94.4816313,22.9458624 L102.855463,39.0960748 L91.8172302,39.0960748 Z" id="Fill-6"></path>
                    <path d="M50.3292438,39.42226 C42.2816653,39.42226 35.7015463,33.9847069 35.7015463,25.502124 L35.7015463,0.379949023 L45.2172642,0.379949023 L45.2172642,25.2846219 C45.2172642,28.8727273 47.175463,30.9396771 50.3292438,30.9396771 C53.4837043,30.9396771 55.5492948,28.8727273 55.5492948,25.2846219 L55.5492948,0.379949023 L65.0656924,0.379949023 L65.0656924,25.502124 C65.0656924,33.9847069 58.3768224,39.42226 50.3292438,39.42226" id="Fill-4"></path>
                    <path d="M15.1490909,39.42226 C9.22147833,39.42226 4.38205607,38.3347494 0.467017842,34.3109601 L6.55707732,28.2209006 C8.56897196,30.2321155 12.1040612,30.9396771 15.2034664,30.9396771 C18.9553781,30.9396771 20.7497706,29.6890399 20.7497706,27.4589635 C20.7497706,26.5352591 20.5322685,25.773322 19.9885132,25.1758709 C19.4991334,24.6858114 18.6835004,24.3058624 17.4321835,24.1427358 L12.7558879,23.4902294 C9.3302294,23.0001699 6.7208836,21.8589635 4.98018692,20.0645709 C3.18579439,18.2151232 2.3157859,15.6050977 2.3157859,12.2881903 C2.3157859,5.21937128 7.64526763,0.0536958369 16.4541037,0.0536958369 C22.0004078,0.0536958369 26.1873237,1.35870858 29.5042311,4.67561597 L23.5229227,10.6569244 C21.0760238,8.21002549 17.8678675,8.37315208 16.182226,8.37315208 C12.8653186,8.37315208 11.5059303,10.2762957 11.5059303,11.9619371 C11.5059303,12.4513169 11.6690569,13.1581988 12.2671878,13.7563297 C12.7558879,14.2457094 13.5722005,14.7350892 14.9315888,14.8982158 L19.6078845,15.5507222 C23.0879184,16.040102 25.5891929,17.1276126 27.2204588,18.7588785 C29.286729,20.7714528 30.1023619,23.6526763 30.1023619,27.242141 C30.1023619,35.126593 23.3054206,39.42226 15.1490909,39.42226" id="Fill-1"></path>
                </g>
            </g>
        </g>
    </g>
</svg>