<svg xmlns="http://www.w3.org/2000/svg" width="150" height="39" viewBox="0 0 150 39">
    <g fill="#FFF" fill-rule="evenodd">
        <path d="M150 34a5 5 0 1 1-10 0 5 5 0 0 1 10 0M108 39V0h27v8.545h-17.237v6.518h14.726v8.545h-14.726v6.847H135V39zM88.087 8.6h-5.45v7.887h5.45c2.643 0 4.185-1.917 4.185-3.943 0-2.027-1.542-3.944-4.185-3.944zM92.823 39l-6.938-14.516h-3.249V39H73V0h15.528c8.7 0 13.38 6.135 13.38 12.544 0 5.313-3.304 8.654-6.387 10.188L104 39H92.823zM51.944 39C43.723 39 37 33.568 37 25.095V0h9.722v24.878c0 3.584 2 5.649 5.222 5.649 3.223 0 5.334-2.065 5.334-5.65V0H67v25.095C67 33.568 60.166 39 51.944 39M14.863 39c-6 0-10.9-1.077-14.863-5.063l6.165-6.033c2.037 1.992 5.615 2.693 8.753 2.693 3.798 0 5.614-1.24 5.614-3.448 0-.915-.22-1.67-.77-2.262-.496-.485-1.321-.862-2.588-1.023l-4.734-.647c-3.468-.485-6.11-1.616-7.871-3.393-1.817-1.833-2.697-4.418-2.697-7.704C1.872 5.117 7.267 0 16.184 0c5.614 0 9.853 1.293 13.21 4.579l-6.054 5.925c-2.477-2.424-5.725-2.262-7.431-2.262-3.358 0-4.734 1.885-4.734 3.555 0 .485.165 1.185.77 1.777.495.485 1.321.97 2.698 1.132l4.733.646c3.523.485 6.055 1.562 7.707 3.178C29.174 20.524 30 23.378 30 26.934 30 34.744 23.12 39 14.863 39"/>
    </g>
</svg>
