<svg xmlns="http://www.w3.org/2000/svg" width="76" height="20" viewBox="0 0 76 20">
    <g fill="#039BE5" fill-rule="evenodd">
        <path d="M76 17.5a2.5 2.5 0 1 1-5 0 2.5 2.5 0 0 1 5 0M55 20V0h14v4.382h-8.938v3.343h7.636v4.382h-7.636v3.511H69V20zM44.3 4.41h-2.637v4.045H44.3c1.28 0 2.025-.983 2.025-2.022 0-1.04-.746-2.023-2.025-2.023zM46.592 20l-3.357-7.444h-1.572V20H37V0h7.513c4.21 0 6.475 3.146 6.475 6.433 0 2.724-1.599 4.438-3.09 5.224L52 20h-5.408zM25.472 20C21.362 20 18 17.215 18 12.87V0h4.86v12.758c0 1.838 1.001 2.897 2.612 2.897 1.612 0 2.667-1.06 2.667-2.897V0H33v12.87c0 4.345-3.417 7.13-7.528 7.13M7.431 20c-3 0-5.45-.552-7.431-2.597l3.082-3.094c1.019 1.022 2.808 1.382 4.377 1.382 1.899 0 2.807-.636 2.807-1.769 0-.469-.11-.856-.385-1.16-.248-.248-.66-.441-1.294-.524l-2.367-.332c-1.734-.249-3.055-.828-3.936-1.74C1.376 9.226.936 7.9.936 6.216.936 2.623 3.633 0 8.092 0c2.807 0 4.926.663 6.605 2.348L11.67 5.387c-1.239-1.243-2.863-1.16-3.716-1.16-1.679 0-2.367.966-2.367 1.823 0 .248.083.607.386.911.247.249.66.497 1.348.58l2.367.332c1.762.248 3.028.8 3.853 1.63C14.587 10.525 15 11.989 15 13.813 15 17.817 11.56 20 7.431 20"/>
    </g>
</svg>
